<svg width="38" height="21" viewBox="0 0 38 21" fill="none" xmlns="http://www.w3.org/2000/svg">
<path d="M36.0747 0.75H30.2247C29.6858 0.75 29.2497 1.18616 29.2497 1.725C29.2497 2.26384 29.6858 2.7 30.2247 2.7H33.5332L16.6098 17.9308L9.46434 10.7853C9.0834 10.4044 8.46656 10.4044 8.0857 10.7853L0.285702 18.5853C-0.0952339 18.9663 -0.0952339 19.5831 0.285702 19.964C0.475522 20.1551 0.725061 20.25 0.974676 20.25C1.22429 20.25 1.47391 20.1551 1.66434 19.9647L8.77468 12.8536L15.885 19.964C16.2516 20.3312 16.8412 20.3429 17.2266 20.0004L35.0997 3.91487V7.575C35.0997 8.11384 35.5358 8.55 36.0747 8.55C36.6135 8.55 37.0497 8.11384 37.0497 7.575V1.725C37.0497 1.18616 36.6135 0.75 36.0747 0.75Z" fill="#1B2137"/>
</svg>
