<svg width="106" height="29" viewBox="0 0 106 29" fill="none" xmlns="http://www.w3.org/2000/svg">
<g opacity="0.8">
<path d="M94.4865 13.6907C93.7235 14.232 93.7235 15.1342 94.4865 15.6755C95.6311 16.5776 96.9664 16.2167 98.4928 16.2167C100.4 16.2167 102.308 16.3972 104.215 16.758C105.741 17.1189 106.314 14.9537 104.978 14.4125C103.452 13.8709 101.735 13.51 100.019 13.3296C98.111 13.1492 96.0126 12.6079 94.4865 13.6907Z" fill="white"/>
<path d="M86.4746 13.5102C85.33 13.8711 84.3765 14.0515 83.232 14.2322C82.6597 14.2322 82.0874 14.0518 81.5148 14.2322C80.9425 14.4126 80.561 14.4126 79.9887 14.7732C79.2257 15.1341 79.2257 16.397 79.9887 16.7579C81.324 17.2992 82.2778 17.2992 83.6132 16.9383C84.9485 16.5775 86.0931 16.397 87.4284 15.6753C88.5729 14.9536 87.8099 13.1491 86.4746 13.5102Z" fill="white"/>
<path d="M63.0109 14.7732C62.4387 15.1341 62.4387 16.0362 63.0109 16.5775C63.9647 17.2992 64.7278 17.1187 65.8724 17.1187C67.0169 17.1187 67.9707 16.9383 69.1153 16.9383C70.6414 16.7579 70.6414 14.7732 69.1153 14.7732C68.1612 14.7732 67.2077 14.5928 66.2536 14.5928C65.1093 14.2319 64.1555 13.8708 63.0109 14.7732Z" fill="white"/>
<path d="M54.4267 14.5928C52.3283 15.3145 50.2299 14.9536 48.1316 15.4949C46.987 15.8558 46.987 17.4796 48.1316 17.8405C50.4207 18.5622 53.0913 17.8405 55.19 16.5775C56.3343 16.0362 55.5712 14.2319 54.4267 14.5928Z" fill="white"/>
<path d="M30.0093 15.8559C29.6278 16.2167 29.6278 16.9384 30.0093 17.2993C31.1539 18.3819 32.68 18.021 34.2061 18.021C35.5414 18.021 37.0675 18.021 38.4029 17.8406C39.5474 17.6601 39.5474 15.8559 38.4029 15.6754C37.0675 15.495 35.923 15.495 34.5876 15.495C33.0615 15.1342 31.3447 14.7733 30.0093 15.8559Z" fill="white"/>
<path d="M13.6039 17.6602C13.6039 18.7428 14.7484 19.4645 15.7022 19.1036C17.2283 18.7428 19.1359 18.7428 20.662 18.5624C21.6158 18.3819 21.6158 16.7581 20.662 16.5776C18.9452 16.3972 17.2283 16.5776 15.7022 16.0364C14.7484 15.8559 13.6039 16.5776 13.6039 17.6602Z" fill="white"/>
<path d="M12.8408 0.519192C8.07182 4.66903 3.30279 9.17973 0.250605 14.7733C-0.130918 15.495 -0.130918 16.3971 0.632127 16.9384C5.40116 20.7274 10.7425 23.6143 15.3207 27.5837C16.8468 29.0271 19.136 26.6815 17.6099 25.4185C13.4131 21.81 8.45334 19.1036 4.25659 15.495C7.30877 10.8039 11.6963 7.55588 15.7023 3.40604C17.6099 1.42162 14.7485 -1.10466 12.8408 0.519192Z" fill="white"/>
</g>
</svg>
