<svg width="306" height="38" viewBox="0 0 306 38" fill="none" xmlns="http://www.w3.org/2000/svg">
<path d="M107.328 9.59375C106.922 9.59375 106.719 9.79688 106.719 10.2031V31.3906C106.719 31.7969 106.922 32 107.328 32H110.812C111.219 32 111.422 31.7969 111.422 31.3906V22.625H121.188C121.594 22.625 121.797 22.4219 121.797 22.0156V19.4219C121.797 19.0156 121.594 18.8125 121.188 18.8125H111.422V13.9531H123.016C123.406 13.9531 123.609 13.75 123.609 13.3438V10.2031C123.625 9.79688 123.422 9.59375 123.016 9.59375H107.328ZM132.438 7.45312C132.922 7.45312 133.281 7.29688 133.547 6.96875L135.562 4.35938L137.609 6.96875C137.875 7.29688 138.25 7.45312 138.734 7.45312H140.469C140.891 7.45312 141.125 7.01562 140.875 6.6875L136.875 1.0625C136.75 0.84375 136.516 0.734375 136.172 0.734375H134.891C134.562 0.734375 134.344 0.859375 134.219 1.09375L130.25 6.6875C130 7.0625 130.25 7.45312 130.672 7.45312H132.438ZM132.047 27.6094V22.625H141.812C142.219 22.625 142.422 22.4219 142.422 22.0156V19.4219C142.422 19.0156 142.219 18.8125 141.812 18.8125H132.047V13.9531H143.641C144.031 13.9531 144.234 13.75 144.234 13.3438V10.2031C144.25 9.79688 144.047 9.59375 143.641 9.59375H127.953C127.547 9.59375 127.344 9.79688 127.344 10.2031V31.3906C127.344 31.7969 127.547 32 127.953 32H143.734C144.141 32 144.344 31.7969 144.344 31.3906V28.2188C144.344 27.8125 144.141 27.6094 143.734 27.6094H132.047ZM164.594 9.59375C164.188 9.59375 163.984 9.79688 163.984 10.2031V23.5781L152.406 9.92188C152.219 9.70312 151.969 9.59375 151.672 9.59375H149.203C148.797 9.59375 148.594 9.79688 148.594 10.2031V31.3906C148.594 31.7969 148.797 32 149.203 32H152.688C153.094 32 153.297 31.7969 153.297 31.3906V17.9531L164.844 31.6406C165.016 31.875 165.266 32 165.594 32H168.078C168.484 32 168.688 31.7969 168.688 31.3906V10.2031C168.688 9.79688 168.484 9.59375 168.078 9.59375H164.594ZM178.219 32C178.625 32 178.828 31.7969 178.828 31.3906V10.2031C178.828 9.79688 178.625 9.59375 178.219 9.59375H174.734C174.328 9.59375 174.125 9.79688 174.125 10.2031V31.3906C174.125 31.7969 174.328 32 174.734 32H178.219ZM197.781 20.5156L205.984 10.375C206.312 9.9375 206.156 9.59375 205.594 9.59375H200.984C200.688 9.59375 200.453 9.71875 200.281 9.95312L194.484 17.1562L188.672 9.95312C188.484 9.71875 188.234 9.59375 187.938 9.59375H183.359C182.797 9.59375 182.641 9.95312 182.969 10.375L191.156 20.4844L182.453 31.2031C182.125 31.625 182.281 32 182.844 32H187.422C187.75 32 187.984 31.875 188.156 31.6406L194.453 23.8125L200.766 31.6406C200.938 31.875 201.172 32 201.5 32H206.109C206.656 32 206.812 31.625 206.484 31.2031L197.781 20.5156Z" fill="white"/>
<path d="M229.188 32.4219C232.172 32.4219 234.875 31.3438 237.281 29.1875C237.422 29.0781 237.422 28.9375 237.25 28.7656L236.031 27.5781C235.953 27.5 235.828 27.5 235.688 27.5781C234.547 28.5469 233.531 29.2188 232.641 29.6094C231.734 30 230.516 30.2031 228.984 30.2031C226.5 30.2031 224.391 29.3125 222.688 27.5156C220.984 25.7188 220.125 23.4688 220.125 20.7656C220.125 18.0938 220.969 15.875 222.641 14.1094C224.312 12.3438 226.375 11.4531 228.859 11.4531C231.828 11.4531 234.203 12.375 235.969 14.2344C236.109 14.3594 236.234 14.3594 236.359 14.2344L237.5 13.0938C237.641 12.9375 237.641 12.8125 237.5 12.7031C235.094 10.4062 232.156 9.25 228.703 9.25C225.672 9.25 223.109 10.3594 221.031 12.5781C218.938 14.7969 217.891 17.5312 217.891 20.7969C217.891 24.1094 218.969 26.875 221.125 29.0938C223.281 31.3125 225.969 32.4219 229.188 32.4219ZM244.375 29.8281V9.92188C244.375 9.70312 244.266 9.59375 244.062 9.59375H242.359C242.156 9.60938 242.047 9.71875 242.047 9.92188V31.6875C242.047 31.8906 242.156 32 242.359 32H258.016C258.219 32 258.328 31.8906 258.328 31.6875V30.1406C258.328 29.9375 258.219 29.8281 258.016 29.8281H244.375ZM271.141 32.3594C273.906 32.3594 276.094 31.4219 277.703 29.5625C279.312 27.7031 280.109 25.1719 280.109 21.9531V9.92188C280.094 9.70312 279.984 9.59375 279.781 9.59375H278.094C277.875 9.60938 277.766 9.71875 277.766 9.92188V21.9531C277.766 24.5312 277.188 26.5312 276.047 27.9375C274.891 29.3438 273.266 30.0469 271.156 30.0469C269.047 30.0469 267.406 29.3438 266.234 27.9375C265.062 26.5312 264.484 24.5312 264.484 21.9531V9.92188C264.484 9.70312 264.375 9.59375 264.172 9.59375H262.5C262.297 9.60938 262.188 9.71875 262.188 9.92188V21.9531C262.188 25.1719 262.984 27.7031 264.578 29.5625C266.156 31.4219 268.344 32.3594 271.141 32.3594ZM299.172 20.4219C301.094 19.4375 302.047 17.7656 302.047 15.3906C302.047 11.5938 299.391 9.59375 294.625 9.59375H286.047C285.844 9.60938 285.734 9.71875 285.734 9.92188V31.6875C285.734 31.8906 285.844 32 286.047 32H296.094C300.781 32 303.484 29.9531 303.484 26.2031C303.484 23.2656 301.859 21.2344 299.172 20.4219ZM294.812 11.75C298.172 11.75 299.844 13.0781 299.844 15.75C299.844 18.3906 298.062 19.7188 294.5 19.7188H288.062V11.75H294.812ZM288.062 29.8594V21.7344H295.578C299.125 21.7344 301.156 23.2656 301.156 25.8281C301.156 28.3438 299.453 29.8906 296.125 29.8906L288.062 29.8594Z" fill="white"/>
<path d="M73.8348 15.4992C73.8348 15.4992 77.8037 16.0245 80.4444 17.4103C82.086 18.2708 81.7236 19.281 80.5195 19.5904C80.5195 19.5904 88.0488 21.6224 86.4693 24.7163C86.4693 24.7163 85.271 22.4052 78.6628 22.411C76.5375 22.4124 65.894 30.2754 65.2169 27.9743C64.3174 24.9207 64.4935 33.0441 63.1003 34.9998C63.1003 34.9998 71.8525 25.8661 76.4798 24.1997C80.147 22.8787 86.9227 24.1119 86.3466 26.4187C86.3466 26.4187 92.1217 22.9333 82.7848 19.3098C82.7848 19.3098 84.1131 15.3596 71.9882 13.958" fill="white"/>
<path d="M80.5195 19.5909L78.5617 19.9881L77.5468 18.9045C77.5482 18.9045 77.707 18.3605 80.5195 19.5909Z" fill="white"/>
<path d="M63.314 18.8796C63.314 18.8796 69.1108 18.6997 73.8348 15.4993L71.9897 13.9595C71.9897 13.9595 66.7343 19.589 62.1416 17.8981C61.7157 17.7413 63.314 18.8796 63.314 18.8796Z" fill="white"/>
<path d="M67.0404 18.3503C67.0404 18.3503 66.4831 18.2812 63.88 18.241C61.7273 18.2064 56.381 15.9226 54.7698 9.96355C54.7698 9.96355 30.2616 17.7776 0 3C0 3 16.9023 22.2329 53.2567 13.0374C53.2552 13.0359 56.6005 21.2385 67.0404 18.3503Z" fill="white"/>
<path d="M65.2876 19.176C65.2876 19.176 56.3362 21.7188 52.4582 16.177C52.4582 16.177 26.7993 24.7667 0.996094 15.5107C0.996094 15.5107 12.5117 31.9648 52.0539 18.409C52.0525 18.409 57.1057 22.6772 65.2876 19.176Z" fill="white"/>
<path d="M63.402 20.4082C63.402 20.4082 55.724 24.4073 51.8792 20.5204C51.8792 20.5204 31.1595 31.2255 7.20581 28.1301C7.20581 28.1301 16.1717 39.5317 52.0034 22.774C52.0034 22.774 52.1492 22.8258 52.425 22.8906C53.7446 23.2014 58.0167 23.8029 63.402 20.4082Z" fill="white"/>
</svg>
